<svg width="480" height="64" viewBox="0 0 480 64" fill="none" xmlns="http://www.w3.org/2000/svg">
<g id="Vector" filter="url(#filter0_b_263_128)">
<path d="M51.5 24.4219C51.5 26.9479 51.1224 29.1875 50.3672 31.1406C49.612 33.0938 48.5703 34.7995 47.2422 36.2578C45.9401 37.7161 44.4036 38.9531 42.6328 39.9688C40.862 40.9844 38.9609 41.8177 36.9297 42.4688C34.9245 43.0938 32.8411 43.5625 30.6797 43.875C28.5182 44.1615 26.3958 44.3177 24.3125 44.3438V62.5469H6.10938C6.10938 56.5833 6.1224 50.6458 6.14844 44.7344C6.17448 38.8229 6.21354 32.8594 6.26562 26.8438C6.31771 23.6667 6.33073 20.4896 6.30469 17.3125C6.27865 14.1354 6.34375 10.9323 6.5 7.70312C9.83333 6.71354 13.1667 5.97135 16.5 5.47656C19.8333 4.98177 23.2708 4.73438 26.8125 4.73438C28.8177 4.73438 30.8229 4.90365 32.8281 5.24219C34.8333 5.55469 36.7474 6.0625 38.5703 6.76562C40.4193 7.46875 42.125 8.35417 43.6875 9.42188C45.276 10.4635 46.6432 11.7135 47.7891 13.1719C48.9349 14.6302 49.8333 16.2969 50.4844 18.1719C51.1615 20.0208 51.5 22.1042 51.5 24.4219ZM34.1562 25.75C34.1562 24.0573 33.6354 22.7422 32.5938 21.8047C31.5781 20.8411 30.25 20.3594 28.6094 20.3594C28.0625 20.3594 27.4896 20.4115 26.8906 20.5156C26.3177 20.5938 25.7708 20.6979 25.25 20.8281L24.7812 32.2344C25.1458 32.2865 25.4974 32.3125 25.8359 32.3125C26.1745 32.3125 26.526 32.3125 26.8906 32.3125C27.8281 32.3125 28.7266 32.1562 29.5859 31.8438C30.4714 31.5312 31.2526 31.0885 31.9297 30.5156C32.6068 29.9167 33.1406 29.2266 33.5312 28.4453C33.9479 27.638 34.1562 26.7396 34.1562 25.75Z" fill="#FAFCFF"/>
<path d="M51.5 24.4219C51.5 26.9479 51.1224 29.1875 50.3672 31.1406C49.612 33.0938 48.5703 34.7995 47.2422 36.2578C45.9401 37.7161 44.4036 38.9531 42.6328 39.9688C40.862 40.9844 38.9609 41.8177 36.9297 42.4688C34.9245 43.0938 32.8411 43.5625 30.6797 43.875C28.5182 44.1615 26.3958 44.3177 24.3125 44.3438V62.5469H6.10938C6.10938 56.5833 6.1224 50.6458 6.14844 44.7344C6.17448 38.8229 6.21354 32.8594 6.26562 26.8438C6.31771 23.6667 6.33073 20.4896 6.30469 17.3125C6.27865 14.1354 6.34375 10.9323 6.5 7.70312C9.83333 6.71354 13.1667 5.97135 16.5 5.47656C19.8333 4.98177 23.2708 4.73438 26.8125 4.73438C28.8177 4.73438 30.8229 4.90365 32.8281 5.24219C34.8333 5.55469 36.7474 6.0625 38.5703 6.76562C40.4193 7.46875 42.125 8.35417 43.6875 9.42188C45.276 10.4635 46.6432 11.7135 47.7891 13.1719C48.9349 14.6302 49.8333 16.2969 50.4844 18.1719C51.1615 20.0208 51.5 22.1042 51.5 24.4219ZM34.1562 25.75C34.1562 24.0573 33.6354 22.7422 32.5938 21.8047C31.5781 20.8411 30.25 20.3594 28.6094 20.3594C28.0625 20.3594 27.4896 20.4115 26.8906 20.5156C26.3177 20.5938 25.7708 20.6979 25.25 20.8281L24.7812 32.2344C25.1458 32.2865 25.4974 32.3125 25.8359 32.3125C26.1745 32.3125 26.526 32.3125 26.8906 32.3125C27.8281 32.3125 28.7266 32.1562 29.5859 31.8438C30.4714 31.5312 31.2526 31.0885 31.9297 30.5156C32.6068 29.9167 33.1406 29.2266 33.5312 28.4453C33.9479 27.638 34.1562 26.7396 34.1562 25.75Z" fill="#F3F8F9"/>
<path d="M100.367 18.5625C100.367 20.4896 100.276 22.612 100.094 24.9297C99.9115 27.2474 99.612 29.6432 99.1953 32.1172C98.7786 34.5911 98.2318 37.1042 97.5547 39.6562C96.9036 42.1823 96.0833 44.6172 95.0938 46.9609C94.1042 49.3047 92.9453 51.5052 91.6172 53.5625C90.3151 55.5938 88.8047 57.3776 87.0859 58.9141C85.3932 60.4245 83.4922 61.6094 81.3828 62.4688C79.2734 63.3542 76.9297 63.7969 74.3516 63.7969C71.3307 63.7969 68.7005 63.3021 66.4609 62.3125C64.2474 61.349 62.3464 60.0469 60.7578 58.4062C59.1693 56.7396 57.8672 54.8125 56.8516 52.625C55.8359 50.4115 55.0417 48.0807 54.4688 45.6328C53.8958 43.1589 53.4922 40.6458 53.2578 38.0938C53.0495 35.5156 52.9453 33.0417 52.9453 30.6719C52.9453 27.026 53.1276 23.3932 53.4922 19.7734C53.8568 16.1276 54.3776 12.4948 55.0547 8.875L73.3359 9.57812C72.6328 13.6667 72.0208 17.7812 71.5 21.9219C71.0052 26.0365 70.7578 30.1771 70.7578 34.3438C70.7578 34.7865 70.7708 35.4505 70.7969 36.3359C70.849 37.1953 70.9271 38.1719 71.0312 39.2656C71.1354 40.3333 71.2786 41.4401 71.4609 42.5859C71.6693 43.7057 71.9427 44.7344 72.2812 45.6719C72.6198 46.6094 73.0234 47.3776 73.4922 47.9766C73.987 48.5755 74.5599 48.875 75.2109 48.875C75.9661 48.875 76.6432 48.5234 77.2422 47.8203C77.8411 47.0911 78.362 46.1276 78.8047 44.9297C79.2734 43.7318 79.6771 42.3516 80.0156 40.7891C80.3542 39.2266 80.6406 37.599 80.875 35.9062C81.1094 34.2135 81.2917 32.5208 81.4219 30.8281C81.5781 29.1354 81.6953 27.5599 81.7734 26.1016C81.8776 24.6432 81.9427 23.3542 81.9688 22.2344C81.9948 21.1146 82.0078 20.2812 82.0078 19.7344C82.0078 17.7031 81.9688 15.6849 81.8906 13.6797C81.8385 11.6484 81.7474 9.63021 81.6172 7.625H99.8984C100.211 11.2188 100.367 14.8646 100.367 18.5625Z" fill="#FAFCFF"/>
<path d="M100.367 18.5625C100.367 20.4896 100.276 22.612 100.094 24.9297C99.9115 27.2474 99.612 29.6432 99.1953 32.1172C98.7786 34.5911 98.2318 37.1042 97.5547 39.6562C96.9036 42.1823 96.0833 44.6172 95.0938 46.9609C94.1042 49.3047 92.9453 51.5052 91.6172 53.5625C90.3151 55.5938 88.8047 57.3776 87.0859 58.9141C85.3932 60.4245 83.4922 61.6094 81.3828 62.4688C79.2734 63.3542 76.9297 63.7969 74.3516 63.7969C71.3307 63.7969 68.7005 63.3021 66.4609 62.3125C64.2474 61.349 62.3464 60.0469 60.7578 58.4062C59.1693 56.7396 57.8672 54.8125 56.8516 52.625C55.8359 50.4115 55.0417 48.0807 54.4688 45.6328C53.8958 43.1589 53.4922 40.6458 53.2578 38.0938C53.0495 35.5156 52.9453 33.0417 52.9453 30.6719C52.9453 27.026 53.1276 23.3932 53.4922 19.7734C53.8568 16.1276 54.3776 12.4948 55.0547 8.875L73.3359 9.57812C72.6328 13.6667 72.0208 17.7812 71.5 21.9219C71.0052 26.0365 70.7578 30.1771 70.7578 34.3438C70.7578 34.7865 70.7708 35.4505 70.7969 36.3359C70.849 37.1953 70.9271 38.1719 71.0312 39.2656C71.1354 40.3333 71.2786 41.4401 71.4609 42.5859C71.6693 43.7057 71.9427 44.7344 72.2812 45.6719C72.6198 46.6094 73.0234 47.3776 73.4922 47.9766C73.987 48.5755 74.5599 48.875 75.2109 48.875C75.9661 48.875 76.6432 48.5234 77.2422 47.8203C77.8411 47.0911 78.362 46.1276 78.8047 44.9297C79.2734 43.7318 79.6771 42.3516 80.0156 40.7891C80.3542 39.2266 80.6406 37.599 80.875 35.9062C81.1094 34.2135 81.2917 32.5208 81.4219 30.8281C81.5781 29.1354 81.6953 27.5599 81.7734 26.1016C81.8776 24.6432 81.9427 23.3542 81.9688 22.2344C81.9948 21.1146 82.0078 20.2812 82.0078 19.7344C82.0078 17.7031 81.9688 15.6849 81.8906 13.6797C81.8385 11.6484 81.7474 9.63021 81.6172 7.625H99.8984C100.211 11.2188 100.367 14.8646 100.367 18.5625Z" fill="#F3F8F9"/>
<path d="M143.492 41.2188C143.492 44.7865 142.867 47.9115 141.617 50.5938C140.393 53.25 138.701 55.4635 136.539 57.2344C134.404 59.0052 131.891 60.3333 129 61.2188C126.135 62.1042 123.049 62.5469 119.742 62.5469C118.466 62.5469 117.06 62.3776 115.523 62.0391C114.013 61.7005 112.477 61.2839 110.914 60.7891C109.352 60.2682 107.841 59.7214 106.383 59.1484C104.951 58.5495 103.674 57.9896 102.555 57.4688L104.273 41.375C106.487 42.7031 108.935 43.7188 111.617 44.4219C114.326 45.099 116.982 45.4375 119.586 45.4375C120.081 45.4375 120.68 45.4245 121.383 45.3984C122.086 45.3464 122.75 45.2292 123.375 45.0469C124.026 44.8385 124.573 44.5391 125.016 44.1484C125.458 43.7578 125.68 43.1979 125.68 42.4688C125.68 41.974 125.523 41.5573 125.211 41.2188C124.898 40.8542 124.495 40.5677 124 40.3594C123.505 40.125 122.945 39.9557 122.32 39.8516C121.695 39.7214 121.083 39.6302 120.484 39.5781C119.885 39.526 119.326 39.5 118.805 39.5C118.284 39.5 117.867 39.5 117.555 39.5C115.315 39.5 113.271 39.1094 111.422 38.3281C109.599 37.5469 108.023 36.4661 106.695 35.0859C105.393 33.6797 104.378 32.026 103.648 30.125C102.919 28.1979 102.555 26.1146 102.555 23.875C102.555 20.8021 103.167 18.0547 104.391 15.6328C105.641 13.1849 107.294 11.1146 109.352 9.42188C111.435 7.70312 113.818 6.38802 116.5 5.47656C119.182 4.5651 121.956 4.10938 124.82 4.10938C126.096 4.10938 127.411 4.16146 128.766 4.26562C130.12 4.34375 131.461 4.5 132.789 4.73438C134.143 4.96875 135.458 5.26823 136.734 5.63281C138.01 5.9974 139.221 6.45312 140.367 7L138.883 22.8594C137.112 22.2604 135.25 21.7656 133.297 21.375C131.37 20.9583 129.482 20.75 127.633 20.75C127.294 20.75 126.852 20.763 126.305 20.7891C125.784 20.7891 125.224 20.8281 124.625 20.9062C124.052 20.9583 123.466 21.0495 122.867 21.1797C122.268 21.3099 121.734 21.4922 121.266 21.7266C120.797 21.9349 120.419 22.2214 120.133 22.5859C119.846 22.9505 119.716 23.3802 119.742 23.875C119.768 24.4479 119.977 24.9167 120.367 25.2812C120.784 25.6198 121.305 25.8932 121.93 26.1016C122.581 26.2839 123.284 26.4141 124.039 26.4922C124.82 26.5703 125.589 26.6224 126.344 26.6484C127.099 26.6484 127.802 26.6484 128.453 26.6484C129.104 26.6224 129.638 26.6354 130.055 26.6875C132.138 26.8177 134.013 27.2604 135.68 28.0156C137.346 28.7708 138.753 29.7734 139.898 31.0234C141.07 32.2734 141.956 33.7708 142.555 35.5156C143.18 37.2344 143.492 39.1354 143.492 41.2188Z" fill="#FAFCFF"/>
<path d="M143.492 41.2188C143.492 44.7865 142.867 47.9115 141.617 50.5938C140.393 53.25 138.701 55.4635 136.539 57.2344C134.404 59.0052 131.891 60.3333 129 61.2188C126.135 62.1042 123.049 62.5469 119.742 62.5469C118.466 62.5469 117.06 62.3776 115.523 62.0391C114.013 61.7005 112.477 61.2839 110.914 60.7891C109.352 60.2682 107.841 59.7214 106.383 59.1484C104.951 58.5495 103.674 57.9896 102.555 57.4688L104.273 41.375C106.487 42.7031 108.935 43.7188 111.617 44.4219C114.326 45.099 116.982 45.4375 119.586 45.4375C120.081 45.4375 120.68 45.4245 121.383 45.3984C122.086 45.3464 122.75 45.2292 123.375 45.0469C124.026 44.8385 124.573 44.5391 125.016 44.1484C125.458 43.7578 125.68 43.1979 125.68 42.4688C125.68 41.974 125.523 41.5573 125.211 41.2188C124.898 40.8542 124.495 40.5677 124 40.3594C123.505 40.125 122.945 39.9557 122.32 39.8516C121.695 39.7214 121.083 39.6302 120.484 39.5781C119.885 39.526 119.326 39.5 118.805 39.5C118.284 39.5 117.867 39.5 117.555 39.5C115.315 39.5 113.271 39.1094 111.422 38.3281C109.599 37.5469 108.023 36.4661 106.695 35.0859C105.393 33.6797 104.378 32.026 103.648 30.125C102.919 28.1979 102.555 26.1146 102.555 23.875C102.555 20.8021 103.167 18.0547 104.391 15.6328C105.641 13.1849 107.294 11.1146 109.352 9.42188C111.435 7.70312 113.818 6.38802 116.5 5.47656C119.182 4.5651 121.956 4.10938 124.82 4.10938C126.096 4.10938 127.411 4.16146 128.766 4.26562C130.12 4.34375 131.461 4.5 132.789 4.73438C134.143 4.96875 135.458 5.26823 136.734 5.63281C138.01 5.9974 139.221 6.45312 140.367 7L138.883 22.8594C137.112 22.2604 135.25 21.7656 133.297 21.375C131.37 20.9583 129.482 20.75 127.633 20.75C127.294 20.75 126.852 20.763 126.305 20.7891C125.784 20.7891 125.224 20.8281 124.625 20.9062C124.052 20.9583 123.466 21.0495 122.867 21.1797C122.268 21.3099 121.734 21.4922 121.266 21.7266C120.797 21.9349 120.419 22.2214 120.133 22.5859C119.846 22.9505 119.716 23.3802 119.742 23.875C119.768 24.4479 119.977 24.9167 120.367 25.2812C120.784 25.6198 121.305 25.8932 121.93 26.1016C122.581 26.2839 123.284 26.4141 124.039 26.4922C124.82 26.5703 125.589 26.6224 126.344 26.6484C127.099 26.6484 127.802 26.6484 128.453 26.6484C129.104 26.6224 129.638 26.6354 130.055 26.6875C132.138 26.8177 134.013 27.2604 135.68 28.0156C137.346 28.7708 138.753 29.7734 139.898 31.0234C141.07 32.2734 141.956 33.7708 142.555 35.5156C143.18 37.2344 143.492 39.1354 143.492 41.2188Z" fill="#F3F8F9"/>
<path d="M192.359 62L172.828 62.9375L172.672 44.8906H163.688L163.141 62H145.641L147.125 7.07812L165.719 7.9375L164.547 35.9844H173.219L173.297 5.82812L191.109 6.29688L192.359 62Z" fill="#FAFCFF"/>
<path d="M192.359 62L172.828 62.9375L172.672 44.8906H163.688L163.141 62H145.641L147.125 7.07812L165.719 7.9375L164.547 35.9844H173.219L173.297 5.82812L191.109 6.29688L192.359 62Z" fill="#F3F8F9"/>
<path d="M252.125 58.1719C251.214 57.4688 250.302 56.7917 249.391 56.1406C248.479 55.4896 247.568 54.8125 246.656 54.1094C245.38 55.125 243.935 56.1016 242.32 57.0391C240.732 57.9766 239.026 58.7839 237.203 59.4609C235.38 60.138 233.492 60.6458 231.539 60.9844C229.586 61.3229 227.62 61.401 225.641 61.2188C223.375 61.0625 221.253 60.6198 219.273 59.8906C217.32 59.1354 215.641 58.1719 214.234 57C212.828 55.8281 211.76 54.487 211.031 52.9766C210.328 51.4661 210.094 49.8646 210.328 48.1719C210.536 46.7396 211.005 45.3594 211.734 44.0312C212.49 42.6771 213.401 41.388 214.469 40.1641C215.536 38.9401 216.734 37.7812 218.062 36.6875C219.391 35.5677 220.745 34.526 222.125 33.5625C221.135 32.599 220.198 31.5833 219.312 30.5156C218.453 29.4219 217.711 28.3021 217.086 27.1562C216.461 25.9844 215.992 24.7995 215.68 23.6016C215.393 22.3776 215.354 21.1406 215.562 19.8906C215.823 18.224 216.513 16.6484 217.633 15.1641C218.753 13.6797 220.172 12.4036 221.891 11.3359C223.609 10.2682 225.536 9.46094 227.672 8.91406C229.833 8.34115 232.073 8.14583 234.391 8.32812C236.526 8.48438 238.505 8.99219 240.328 9.85156C242.177 10.7109 243.753 11.7786 245.055 13.0547C246.357 14.3307 247.333 15.75 247.984 17.3125C248.635 18.849 248.844 20.3854 248.609 21.9219C248.427 23.1719 248.023 24.3438 247.398 25.4375C246.773 26.5312 246.005 27.5729 245.094 28.5625C244.208 29.526 243.206 30.4635 242.086 31.375C240.992 32.2604 239.885 33.1458 238.766 34.0312C239.859 34.8646 240.901 35.6719 241.891 36.4531C242.906 37.2083 243.948 37.9635 245.016 38.7188C245.484 38.0417 245.94 37.3385 246.383 36.6094C246.826 35.8802 247.229 35.125 247.594 34.3438L259.234 37.1562C258.714 38.6146 258.023 40.0859 257.164 41.5703C256.331 43.0286 255.406 44.4479 254.391 45.8281C255.536 46.6615 256.656 47.4557 257.75 48.2109C258.844 48.9661 259.964 49.7604 261.109 50.5938L252.125 58.1719ZM234 21.1406C234.078 20.2292 233.909 19.487 233.492 18.9141C233.102 18.3411 232.49 18.0156 231.656 17.9375C230.797 17.8073 230.055 17.9896 229.43 18.4844C228.805 18.9531 228.453 19.6562 228.375 20.5938C228.323 21.1927 228.362 21.8047 228.492 22.4297C228.622 23.0286 228.805 23.6276 229.039 24.2266C229.299 24.7995 229.586 25.3594 229.898 25.9062C230.211 26.4271 230.51 26.8958 230.797 27.3125C231.135 26.9219 231.474 26.4792 231.812 25.9844C232.177 25.4896 232.503 24.9688 232.789 24.4219C233.102 23.875 233.362 23.3281 233.57 22.7812C233.805 22.2083 233.948 21.6615 234 21.1406ZM235.25 46.7656C234.469 45.8281 233.661 44.8646 232.828 43.875C231.995 42.8854 231.188 41.9219 230.406 40.9844C230.068 41.349 229.69 41.7917 229.273 42.3125C228.857 42.8333 228.453 43.3932 228.062 43.9922C227.698 44.5651 227.372 45.1641 227.086 45.7891C226.799 46.388 226.63 46.974 226.578 47.5469C226.526 48.3021 226.734 48.9922 227.203 49.6172C227.698 50.2422 228.323 50.5938 229.078 50.6719C229.625 50.75 230.185 50.6719 230.758 50.4375C231.357 50.1771 231.93 49.8385 232.477 49.4219C233.023 49.0052 233.531 48.5625 234 48.0938C234.495 47.599 234.911 47.1562 235.25 46.7656Z" fill="#FAFCFF"/>
<path d="M252.125 58.1719C251.214 57.4688 250.302 56.7917 249.391 56.1406C248.479 55.4896 247.568 54.8125 246.656 54.1094C245.38 55.125 243.935 56.1016 242.32 57.0391C240.732 57.9766 239.026 58.7839 237.203 59.4609C235.38 60.138 233.492 60.6458 231.539 60.9844C229.586 61.3229 227.62 61.401 225.641 61.2188C223.375 61.0625 221.253 60.6198 219.273 59.8906C217.32 59.1354 215.641 58.1719 214.234 57C212.828 55.8281 211.76 54.487 211.031 52.9766C210.328 51.4661 210.094 49.8646 210.328 48.1719C210.536 46.7396 211.005 45.3594 211.734 44.0312C212.49 42.6771 213.401 41.388 214.469 40.1641C215.536 38.9401 216.734 37.7812 218.062 36.6875C219.391 35.5677 220.745 34.526 222.125 33.5625C221.135 32.599 220.198 31.5833 219.312 30.5156C218.453 29.4219 217.711 28.3021 217.086 27.1562C216.461 25.9844 215.992 24.7995 215.68 23.6016C215.393 22.3776 215.354 21.1406 215.562 19.8906C215.823 18.224 216.513 16.6484 217.633 15.1641C218.753 13.6797 220.172 12.4036 221.891 11.3359C223.609 10.2682 225.536 9.46094 227.672 8.91406C229.833 8.34115 232.073 8.14583 234.391 8.32812C236.526 8.48438 238.505 8.99219 240.328 9.85156C242.177 10.7109 243.753 11.7786 245.055 13.0547C246.357 14.3307 247.333 15.75 247.984 17.3125C248.635 18.849 248.844 20.3854 248.609 21.9219C248.427 23.1719 248.023 24.3438 247.398 25.4375C246.773 26.5312 246.005 27.5729 245.094 28.5625C244.208 29.526 243.206 30.4635 242.086 31.375C240.992 32.2604 239.885 33.1458 238.766 34.0312C239.859 34.8646 240.901 35.6719 241.891 36.4531C242.906 37.2083 243.948 37.9635 245.016 38.7188C245.484 38.0417 245.94 37.3385 246.383 36.6094C246.826 35.8802 247.229 35.125 247.594 34.3438L259.234 37.1562C258.714 38.6146 258.023 40.0859 257.164 41.5703C256.331 43.0286 255.406 44.4479 254.391 45.8281C255.536 46.6615 256.656 47.4557 257.75 48.2109C258.844 48.9661 259.964 49.7604 261.109 50.5938L252.125 58.1719ZM234 21.1406C234.078 20.2292 233.909 19.487 233.492 18.9141C233.102 18.3411 232.49 18.0156 231.656 17.9375C230.797 17.8073 230.055 17.9896 229.43 18.4844C228.805 18.9531 228.453 19.6562 228.375 20.5938C228.323 21.1927 228.362 21.8047 228.492 22.4297C228.622 23.0286 228.805 23.6276 229.039 24.2266C229.299 24.7995 229.586 25.3594 229.898 25.9062C230.211 26.4271 230.51 26.8958 230.797 27.3125C231.135 26.9219 231.474 26.4792 231.812 25.9844C232.177 25.4896 232.503 24.9688 232.789 24.4219C233.102 23.875 233.362 23.3281 233.57 22.7812C233.805 22.2083 233.948 21.6615 234 21.1406ZM235.25 46.7656C234.469 45.8281 233.661 44.8646 232.828 43.875C231.995 42.8854 231.188 41.9219 230.406 40.9844C230.068 41.349 229.69 41.7917 229.273 42.3125C228.857 42.8333 228.453 43.3932 228.062 43.9922C227.698 44.5651 227.372 45.1641 227.086 45.7891C226.799 46.388 226.63 46.974 226.578 47.5469C226.526 48.3021 226.734 48.9922 227.203 49.6172C227.698 50.2422 228.323 50.5938 229.078 50.6719C229.625 50.75 230.185 50.6719 230.758 50.4375C231.357 50.1771 231.93 49.8385 232.477 49.4219C233.023 49.0052 233.531 48.5625 234 48.0938C234.495 47.599 234.911 47.1562 235.25 46.7656Z" fill="#F3F8F9"/>
<path d="M324.078 62L304.547 62.9375L304.391 44.8906H295.406L294.859 62H277.359L278.844 7.07812L297.438 7.9375L296.266 35.9844H304.938L305.016 5.82812L322.828 6.29688L324.078 62Z" fill="#FAFCFF"/>
<path d="M324.078 62L304.547 62.9375L304.391 44.8906H295.406L294.859 62H277.359L278.844 7.07812L297.438 7.9375L296.266 35.9844H304.938L305.016 5.82812L322.828 6.29688L324.078 62Z" fill="#F3F8F9"/>
<path d="M376.07 34.4219C376.07 36.7917 375.797 39.0833 375.25 41.2969C374.703 43.4844 373.909 45.5417 372.867 47.4688C371.852 49.3958 370.602 51.1667 369.117 52.7812C367.659 54.3698 366.005 55.737 364.156 56.8828C362.333 58.0286 360.341 58.9271 358.18 59.5781C356.018 60.2031 353.727 60.5156 351.305 60.5156C348.961 60.5156 346.721 60.2161 344.586 59.6172C342.477 59.0182 340.497 58.1849 338.648 57.1172C336.799 56.0234 335.12 54.7214 333.609 53.2109C332.125 51.6745 330.849 49.9818 329.781 48.1328C328.74 46.2578 327.919 44.2526 327.32 42.1172C326.747 39.9818 326.461 37.7552 326.461 35.4375C326.461 33.1719 326.734 30.9583 327.281 28.7969C327.828 26.6094 328.609 24.5521 329.625 22.625C330.667 20.6979 331.917 18.9271 333.375 17.3125C334.833 15.6979 336.461 14.3047 338.258 13.1328C340.081 11.9609 342.047 11.0495 344.156 10.3984C346.266 9.7474 348.492 9.42188 350.836 9.42188C354.612 9.42188 358.049 10.0078 361.148 11.1797C364.273 12.3516 366.93 14.0312 369.117 16.2188C371.331 18.3802 373.036 21.0104 374.234 24.1094C375.458 27.1823 376.07 30.6198 376.07 34.4219ZM358.727 35.4375C358.727 34.3177 358.557 33.237 358.219 32.1953C357.906 31.1276 357.438 30.1901 356.812 29.3828C356.188 28.5495 355.406 27.8854 354.469 27.3906C353.557 26.8698 352.503 26.6094 351.305 26.6094C350.081 26.6094 348.987 26.8307 348.023 27.2734C347.06 27.7161 346.227 28.3281 345.523 29.1094C344.846 29.8646 344.326 30.763 343.961 31.8047C343.596 32.8203 343.414 33.901 343.414 35.0469C343.414 36.1406 343.57 37.2344 343.883 38.3281C344.195 39.4219 344.664 40.4115 345.289 41.2969C345.914 42.1823 346.682 42.8984 347.594 43.4453C348.531 43.9922 349.612 44.2656 350.836 44.2656C352.06 44.2656 353.154 44.0312 354.117 43.5625C355.107 43.0677 355.94 42.4167 356.617 41.6094C357.294 40.776 357.815 39.8255 358.18 38.7578C358.544 37.6901 358.727 36.5833 358.727 35.4375Z" fill="#FAFCFF"/>
<path d="M376.07 34.4219C376.07 36.7917 375.797 39.0833 375.25 41.2969C374.703 43.4844 373.909 45.5417 372.867 47.4688C371.852 49.3958 370.602 51.1667 369.117 52.7812C367.659 54.3698 366.005 55.737 364.156 56.8828C362.333 58.0286 360.341 58.9271 358.18 59.5781C356.018 60.2031 353.727 60.5156 351.305 60.5156C348.961 60.5156 346.721 60.2161 344.586 59.6172C342.477 59.0182 340.497 58.1849 338.648 57.1172C336.799 56.0234 335.12 54.7214 333.609 53.2109C332.125 51.6745 330.849 49.9818 329.781 48.1328C328.74 46.2578 327.919 44.2526 327.32 42.1172C326.747 39.9818 326.461 37.7552 326.461 35.4375C326.461 33.1719 326.734 30.9583 327.281 28.7969C327.828 26.6094 328.609 24.5521 329.625 22.625C330.667 20.6979 331.917 18.9271 333.375 17.3125C334.833 15.6979 336.461 14.3047 338.258 13.1328C340.081 11.9609 342.047 11.0495 344.156 10.3984C346.266 9.7474 348.492 9.42188 350.836 9.42188C354.612 9.42188 358.049 10.0078 361.148 11.1797C364.273 12.3516 366.93 14.0312 369.117 16.2188C371.331 18.3802 373.036 21.0104 374.234 24.1094C375.458 27.1823 376.07 30.6198 376.07 34.4219ZM358.727 35.4375C358.727 34.3177 358.557 33.237 358.219 32.1953C357.906 31.1276 357.438 30.1901 356.812 29.3828C356.188 28.5495 355.406 27.8854 354.469 27.3906C353.557 26.8698 352.503 26.6094 351.305 26.6094C350.081 26.6094 348.987 26.8307 348.023 27.2734C347.06 27.7161 346.227 28.3281 345.523 29.1094C344.846 29.8646 344.326 30.763 343.961 31.8047C343.596 32.8203 343.414 33.901 343.414 35.0469C343.414 36.1406 343.57 37.2344 343.883 38.3281C344.195 39.4219 344.664 40.4115 345.289 41.2969C345.914 42.1823 346.682 42.8984 347.594 43.4453C348.531 43.9922 349.612 44.2656 350.836 44.2656C352.06 44.2656 353.154 44.0312 354.117 43.5625C355.107 43.0677 355.94 42.4167 356.617 41.6094C357.294 40.776 357.815 39.8255 358.18 38.7578C358.544 37.6901 358.727 36.5833 358.727 35.4375Z" fill="#F3F8F9"/>
<path d="M439.195 5.04688L435.602 62.3906L417.789 63.1719L417.945 32.9375L409.898 57.3125H403.023L396.852 35.5156L396.773 60.8281L378.727 61.375L379.508 7.39062L399.586 6.60938L407.555 32.4688L418.18 5.04688H439.195Z" fill="#FAFCFF"/>
<path d="M439.195 5.04688L435.602 62.3906L417.789 63.1719L417.945 32.9375L409.898 57.3125H403.023L396.852 35.5156L396.773 60.8281L378.727 61.375L379.508 7.39062L399.586 6.60938L407.555 32.4688L418.18 5.04688H439.195Z" fill="#F3F8F9"/>
<path d="M479.078 5.67188C478.922 8.11979 478.779 10.5417 478.648 12.9375C478.518 15.3333 478.349 17.7552 478.141 20.2031L461.578 21.0625L461.188 25.9844H472.828L471.969 38.0938L460.25 38.4844L459.859 44.1875H476.422C476.266 47.0521 476.096 49.9036 475.914 52.7422C475.758 55.5547 475.615 58.3802 475.484 61.2188L441.812 62L443.062 5.67188H479.078Z" fill="#FAFCFF"/>
<path d="M479.078 5.67188C478.922 8.11979 478.779 10.5417 478.648 12.9375C478.518 15.3333 478.349 17.7552 478.141 20.2031L461.578 21.0625L461.188 25.9844H472.828L471.969 38.0938L460.25 38.4844L459.859 44.1875H476.422C476.266 47.0521 476.096 49.9036 475.914 52.7422C475.758 55.5547 475.615 58.3802 475.484 61.2188L441.812 62L443.062 5.67188H479.078Z" fill="#F3F8F9"/>
<path d="M45.5 20.4219C45.5 22.9479 45.1224 25.1875 44.3672 27.1406C43.612 29.0938 42.5703 30.7995 41.2422 32.2578C39.9401 33.7161 38.4036 34.9531 36.6328 35.9688C34.862 36.9844 32.9609 37.8177 30.9297 38.4688C28.9245 39.0938 26.8411 39.5625 24.6797 39.875C22.5182 40.1615 20.3958 40.3177 18.3125 40.3438V58.5469H0.109375C0.109375 52.5833 0.122396 46.6458 0.148438 40.7344C0.174479 34.8229 0.213542 28.8594 0.265625 22.8438C0.317708 19.6667 0.330729 16.4896 0.304688 13.3125C0.278646 10.1354 0.34375 6.93229 0.5 3.70312C3.83333 2.71354 7.16667 1.97135 10.5 1.47656C13.8333 0.981771 17.2708 0.734375 20.8125 0.734375C22.8177 0.734375 24.8229 0.903646 26.8281 1.24219C28.8333 1.55469 30.7474 2.0625 32.5703 2.76562C34.4193 3.46875 36.125 4.35417 37.6875 5.42188C39.276 6.46354 40.6432 7.71354 41.7891 9.17188C42.9349 10.6302 43.8333 12.2969 44.4844 14.1719C45.1615 16.0208 45.5 18.1042 45.5 20.4219ZM28.1562 21.75C28.1562 20.0573 27.6354 18.7422 26.5938 17.8047C25.5781 16.8411 24.25 16.3594 22.6094 16.3594C22.0625 16.3594 21.4896 16.4115 20.8906 16.5156C20.3177 16.5938 19.7708 16.6979 19.25 16.8281L18.7812 28.2344C19.1458 28.2865 19.4974 28.3125 19.8359 28.3125C20.1745 28.3125 20.526 28.3125 20.8906 28.3125C21.8281 28.3125 22.7266 28.1562 23.5859 27.8438C24.4714 27.5312 25.2526 27.0885 25.9297 26.5156C26.6068 25.9167 27.1406 25.2266 27.5312 24.4453C27.9479 23.638 28.1562 22.7396 28.1562 21.75Z" fill="#FAFCFF"/>
<path d="M45.5 20.4219C45.5 22.9479 45.1224 25.1875 44.3672 27.1406C43.612 29.0938 42.5703 30.7995 41.2422 32.2578C39.9401 33.7161 38.4036 34.9531 36.6328 35.9688C34.862 36.9844 32.9609 37.8177 30.9297 38.4688C28.9245 39.0938 26.8411 39.5625 24.6797 39.875C22.5182 40.1615 20.3958 40.3177 18.3125 40.3438V58.5469H0.109375C0.109375 52.5833 0.122396 46.6458 0.148438 40.7344C0.174479 34.8229 0.213542 28.8594 0.265625 22.8438C0.317708 19.6667 0.330729 16.4896 0.304688 13.3125C0.278646 10.1354 0.34375 6.93229 0.5 3.70312C3.83333 2.71354 7.16667 1.97135 10.5 1.47656C13.8333 0.981771 17.2708 0.734375 20.8125 0.734375C22.8177 0.734375 24.8229 0.903646 26.8281 1.24219C28.8333 1.55469 30.7474 2.0625 32.5703 2.76562C34.4193 3.46875 36.125 4.35417 37.6875 5.42188C39.276 6.46354 40.6432 7.71354 41.7891 9.17188C42.9349 10.6302 43.8333 12.2969 44.4844 14.1719C45.1615 16.0208 45.5 18.1042 45.5 20.4219ZM28.1562 21.75C28.1562 20.0573 27.6354 18.7422 26.5938 17.8047C25.5781 16.8411 24.25 16.3594 22.6094 16.3594C22.0625 16.3594 21.4896 16.4115 20.8906 16.5156C20.3177 16.5938 19.7708 16.6979 19.25 16.8281L18.7812 28.2344C19.1458 28.2865 19.4974 28.3125 19.8359 28.3125C20.1745 28.3125 20.526 28.3125 20.8906 28.3125C21.8281 28.3125 22.7266 28.1562 23.5859 27.8438C24.4714 27.5312 25.2526 27.0885 25.9297 26.5156C26.6068 25.9167 27.1406 25.2266 27.5312 24.4453C27.9479 23.638 28.1562 22.7396 28.1562 21.75Z" fill="#F5A711"/>
<path d="M94.3672 14.5625C94.3672 16.4896 94.276 18.612 94.0938 20.9297C93.9115 23.2474 93.612 25.6432 93.1953 28.1172C92.7786 30.5911 92.2318 33.1042 91.5547 35.6562C90.9036 38.1823 90.0833 40.6172 89.0938 42.9609C88.1042 45.3047 86.9453 47.5052 85.6172 49.5625C84.3151 51.5938 82.8047 53.3776 81.0859 54.9141C79.3932 56.4245 77.4922 57.6094 75.3828 58.4688C73.2734 59.3542 70.9297 59.7969 68.3516 59.7969C65.3307 59.7969 62.7005 59.3021 60.4609 58.3125C58.2474 57.349 56.3464 56.0469 54.7578 54.4062C53.1693 52.7396 51.8672 50.8125 50.8516 48.625C49.8359 46.4115 49.0417 44.0807 48.4688 41.6328C47.8958 39.1589 47.4922 36.6458 47.2578 34.0938C47.0495 31.5156 46.9453 29.0417 46.9453 26.6719C46.9453 23.026 47.1276 19.3932 47.4922 15.7734C47.8568 12.1276 48.3776 8.49479 49.0547 4.875L67.3359 5.57812C66.6328 9.66667 66.0208 13.7812 65.5 17.9219C65.0052 22.0365 64.7578 26.1771 64.7578 30.3438C64.7578 30.7865 64.7708 31.4505 64.7969 32.3359C64.849 33.1953 64.9271 34.1719 65.0312 35.2656C65.1354 36.3333 65.2786 37.4401 65.4609 38.5859C65.6693 39.7057 65.9427 40.7344 66.2812 41.6719C66.6198 42.6094 67.0234 43.3776 67.4922 43.9766C67.987 44.5755 68.5599 44.875 69.2109 44.875C69.9661 44.875 70.6432 44.5234 71.2422 43.8203C71.8411 43.0911 72.362 42.1276 72.8047 40.9297C73.2734 39.7318 73.6771 38.3516 74.0156 36.7891C74.3542 35.2266 74.6406 33.599 74.875 31.9062C75.1094 30.2135 75.2917 28.5208 75.4219 26.8281C75.5781 25.1354 75.6953 23.5599 75.7734 22.1016C75.8776 20.6432 75.9427 19.3542 75.9688 18.2344C75.9948 17.1146 76.0078 16.2812 76.0078 15.7344C76.0078 13.7031 75.9688 11.6849 75.8906 9.67969C75.8385 7.64844 75.7474 5.63021 75.6172 3.625H93.8984C94.2109 7.21875 94.3672 10.8646 94.3672 14.5625Z" fill="#FAFCFF"/>
<path d="M94.3672 14.5625C94.3672 16.4896 94.276 18.612 94.0938 20.9297C93.9115 23.2474 93.612 25.6432 93.1953 28.1172C92.7786 30.5911 92.2318 33.1042 91.5547 35.6562C90.9036 38.1823 90.0833 40.6172 89.0938 42.9609C88.1042 45.3047 86.9453 47.5052 85.6172 49.5625C84.3151 51.5938 82.8047 53.3776 81.0859 54.9141C79.3932 56.4245 77.4922 57.6094 75.3828 58.4688C73.2734 59.3542 70.9297 59.7969 68.3516 59.7969C65.3307 59.7969 62.7005 59.3021 60.4609 58.3125C58.2474 57.349 56.3464 56.0469 54.7578 54.4062C53.1693 52.7396 51.8672 50.8125 50.8516 48.625C49.8359 46.4115 49.0417 44.0807 48.4688 41.6328C47.8958 39.1589 47.4922 36.6458 47.2578 34.0938C47.0495 31.5156 46.9453 29.0417 46.9453 26.6719C46.9453 23.026 47.1276 19.3932 47.4922 15.7734C47.8568 12.1276 48.3776 8.49479 49.0547 4.875L67.3359 5.57812C66.6328 9.66667 66.0208 13.7812 65.5 17.9219C65.0052 22.0365 64.7578 26.1771 64.7578 30.3438C64.7578 30.7865 64.7708 31.4505 64.7969 32.3359C64.849 33.1953 64.9271 34.1719 65.0312 35.2656C65.1354 36.3333 65.2786 37.4401 65.4609 38.5859C65.6693 39.7057 65.9427 40.7344 66.2812 41.6719C66.6198 42.6094 67.0234 43.3776 67.4922 43.9766C67.987 44.5755 68.5599 44.875 69.2109 44.875C69.9661 44.875 70.6432 44.5234 71.2422 43.8203C71.8411 43.0911 72.362 42.1276 72.8047 40.9297C73.2734 39.7318 73.6771 38.3516 74.0156 36.7891C74.3542 35.2266 74.6406 33.599 74.875 31.9062C75.1094 30.2135 75.2917 28.5208 75.4219 26.8281C75.5781 25.1354 75.6953 23.5599 75.7734 22.1016C75.8776 20.6432 75.9427 19.3542 75.9688 18.2344C75.9948 17.1146 76.0078 16.2812 76.0078 15.7344C76.0078 13.7031 75.9688 11.6849 75.8906 9.67969C75.8385 7.64844 75.7474 5.63021 75.6172 3.625H93.8984C94.2109 7.21875 94.3672 10.8646 94.3672 14.5625Z" fill="#F5A711"/>
<path d="M137.492 37.2188C137.492 40.7865 136.867 43.9115 135.617 46.5938C134.393 49.25 132.701 51.4635 130.539 53.2344C128.404 55.0052 125.891 56.3333 123 57.2188C120.135 58.1042 117.049 58.5469 113.742 58.5469C112.466 58.5469 111.06 58.3776 109.523 58.0391C108.013 57.7005 106.477 57.2839 104.914 56.7891C103.352 56.2682 101.841 55.7214 100.383 55.1484C98.9505 54.5495 97.6745 53.9896 96.5547 53.4688L98.2734 37.375C100.487 38.7031 102.935 39.7188 105.617 40.4219C108.326 41.099 110.982 41.4375 113.586 41.4375C114.081 41.4375 114.68 41.4245 115.383 41.3984C116.086 41.3464 116.75 41.2292 117.375 41.0469C118.026 40.8385 118.573 40.5391 119.016 40.1484C119.458 39.7578 119.68 39.1979 119.68 38.4688C119.68 37.974 119.523 37.5573 119.211 37.2188C118.898 36.8542 118.495 36.5677 118 36.3594C117.505 36.125 116.945 35.9557 116.32 35.8516C115.695 35.7214 115.083 35.6302 114.484 35.5781C113.885 35.526 113.326 35.5 112.805 35.5C112.284 35.5 111.867 35.5 111.555 35.5C109.315 35.5 107.271 35.1094 105.422 34.3281C103.599 33.5469 102.023 32.4661 100.695 31.0859C99.3932 29.6797 98.3776 28.026 97.6484 26.125C96.9193 24.1979 96.5547 22.1146 96.5547 19.875C96.5547 16.8021 97.1667 14.0547 98.3906 11.6328C99.6406 9.1849 101.294 7.11458 103.352 5.42188C105.435 3.70312 107.818 2.38802 110.5 1.47656C113.182 0.565104 115.956 0.109375 118.82 0.109375C120.096 0.109375 121.411 0.161458 122.766 0.265625C124.12 0.34375 125.461 0.5 126.789 0.734375C128.143 0.96875 129.458 1.26823 130.734 1.63281C132.01 1.9974 133.221 2.45312 134.367 3L132.883 18.8594C131.112 18.2604 129.25 17.7656 127.297 17.375C125.37 16.9583 123.482 16.75 121.633 16.75C121.294 16.75 120.852 16.763 120.305 16.7891C119.784 16.7891 119.224 16.8281 118.625 16.9062C118.052 16.9583 117.466 17.0495 116.867 17.1797C116.268 17.3099 115.734 17.4922 115.266 17.7266C114.797 17.9349 114.419 18.2214 114.133 18.5859C113.846 18.9505 113.716 19.3802 113.742 19.875C113.768 20.4479 113.977 20.9167 114.367 21.2812C114.784 21.6198 115.305 21.8932 115.93 22.1016C116.581 22.2839 117.284 22.4141 118.039 22.4922C118.82 22.5703 119.589 22.6224 120.344 22.6484C121.099 22.6484 121.802 22.6484 122.453 22.6484C123.104 22.6224 123.638 22.6354 124.055 22.6875C126.138 22.8177 128.013 23.2604 129.68 24.0156C131.346 24.7708 132.753 25.7734 133.898 27.0234C135.07 28.2734 135.956 29.7708 136.555 31.5156C137.18 33.2344 137.492 35.1354 137.492 37.2188Z" fill="#FAFCFF"/>
<path d="M137.492 37.2188C137.492 40.7865 136.867 43.9115 135.617 46.5938C134.393 49.25 132.701 51.4635 130.539 53.2344C128.404 55.0052 125.891 56.3333 123 57.2188C120.135 58.1042 117.049 58.5469 113.742 58.5469C112.466 58.5469 111.06 58.3776 109.523 58.0391C108.013 57.7005 106.477 57.2839 104.914 56.7891C103.352 56.2682 101.841 55.7214 100.383 55.1484C98.9505 54.5495 97.6745 53.9896 96.5547 53.4688L98.2734 37.375C100.487 38.7031 102.935 39.7188 105.617 40.4219C108.326 41.099 110.982 41.4375 113.586 41.4375C114.081 41.4375 114.68 41.4245 115.383 41.3984C116.086 41.3464 116.75 41.2292 117.375 41.0469C118.026 40.8385 118.573 40.5391 119.016 40.1484C119.458 39.7578 119.68 39.1979 119.68 38.4688C119.68 37.974 119.523 37.5573 119.211 37.2188C118.898 36.8542 118.495 36.5677 118 36.3594C117.505 36.125 116.945 35.9557 116.32 35.8516C115.695 35.7214 115.083 35.6302 114.484 35.5781C113.885 35.526 113.326 35.5 112.805 35.5C112.284 35.5 111.867 35.5 111.555 35.5C109.315 35.5 107.271 35.1094 105.422 34.3281C103.599 33.5469 102.023 32.4661 100.695 31.0859C99.3932 29.6797 98.3776 28.026 97.6484 26.125C96.9193 24.1979 96.5547 22.1146 96.5547 19.875C96.5547 16.8021 97.1667 14.0547 98.3906 11.6328C99.6406 9.1849 101.294 7.11458 103.352 5.42188C105.435 3.70312 107.818 2.38802 110.5 1.47656C113.182 0.565104 115.956 0.109375 118.82 0.109375C120.096 0.109375 121.411 0.161458 122.766 0.265625C124.12 0.34375 125.461 0.5 126.789 0.734375C128.143 0.96875 129.458 1.26823 130.734 1.63281C132.01 1.9974 133.221 2.45312 134.367 3L132.883 18.8594C131.112 18.2604 129.25 17.7656 127.297 17.375C125.37 16.9583 123.482 16.75 121.633 16.75C121.294 16.75 120.852 16.763 120.305 16.7891C119.784 16.7891 119.224 16.8281 118.625 16.9062C118.052 16.9583 117.466 17.0495 116.867 17.1797C116.268 17.3099 115.734 17.4922 115.266 17.7266C114.797 17.9349 114.419 18.2214 114.133 18.5859C113.846 18.9505 113.716 19.3802 113.742 19.875C113.768 20.4479 113.977 20.9167 114.367 21.2812C114.784 21.6198 115.305 21.8932 115.93 22.1016C116.581 22.2839 117.284 22.4141 118.039 22.4922C118.82 22.5703 119.589 22.6224 120.344 22.6484C121.099 22.6484 121.802 22.6484 122.453 22.6484C123.104 22.6224 123.638 22.6354 124.055 22.6875C126.138 22.8177 128.013 23.2604 129.68 24.0156C131.346 24.7708 132.753 25.7734 133.898 27.0234C135.07 28.2734 135.956 29.7708 136.555 31.5156C137.18 33.2344 137.492 35.1354 137.492 37.2188Z" fill="#F5A711"/>
<path d="M186.359 58L166.828 58.9375L166.672 40.8906H157.688L157.141 58H139.641L141.125 3.07812L159.719 3.9375L158.547 31.9844H167.219L167.297 1.82812L185.109 2.29688L186.359 58Z" fill="#FAFCFF"/>
<path d="M186.359 58L166.828 58.9375L166.672 40.8906H157.688L157.141 58H139.641L141.125 3.07812L159.719 3.9375L158.547 31.9844H167.219L167.297 1.82812L185.109 2.29688L186.359 58Z" fill="#F5A711"/>
<path d="M246.125 54.1719C245.214 53.4688 244.302 52.7917 243.391 52.1406C242.479 51.4896 241.568 50.8125 240.656 50.1094C239.38 51.125 237.935 52.1016 236.32 53.0391C234.732 53.9766 233.026 54.7839 231.203 55.4609C229.38 56.138 227.492 56.6458 225.539 56.9844C223.586 57.3229 221.62 57.401 219.641 57.2188C217.375 57.0625 215.253 56.6198 213.273 55.8906C211.32 55.1354 209.641 54.1719 208.234 53C206.828 51.8281 205.76 50.487 205.031 48.9766C204.328 47.4661 204.094 45.8646 204.328 44.1719C204.536 42.7396 205.005 41.3594 205.734 40.0312C206.49 38.6771 207.401 37.388 208.469 36.1641C209.536 34.9401 210.734 33.7812 212.062 32.6875C213.391 31.5677 214.745 30.526 216.125 29.5625C215.135 28.599 214.198 27.5833 213.312 26.5156C212.453 25.4219 211.711 24.3021 211.086 23.1562C210.461 21.9844 209.992 20.7995 209.68 19.6016C209.393 18.3776 209.354 17.1406 209.562 15.8906C209.823 14.224 210.513 12.6484 211.633 11.1641C212.753 9.67969 214.172 8.40365 215.891 7.33594C217.609 6.26823 219.536 5.46094 221.672 4.91406C223.833 4.34115 226.073 4.14583 228.391 4.32812C230.526 4.48438 232.505 4.99219 234.328 5.85156C236.177 6.71094 237.753 7.77865 239.055 9.05469C240.357 10.3307 241.333 11.75 241.984 13.3125C242.635 14.849 242.844 16.3854 242.609 17.9219C242.427 19.1719 242.023 20.3438 241.398 21.4375C240.773 22.5312 240.005 23.5729 239.094 24.5625C238.208 25.526 237.206 26.4635 236.086 27.375C234.992 28.2604 233.885 29.1458 232.766 30.0312C233.859 30.8646 234.901 31.6719 235.891 32.4531C236.906 33.2083 237.948 33.9635 239.016 34.7188C239.484 34.0417 239.94 33.3385 240.383 32.6094C240.826 31.8802 241.229 31.125 241.594 30.3438L253.234 33.1562C252.714 34.6146 252.023 36.0859 251.164 37.5703C250.331 39.0286 249.406 40.4479 248.391 41.8281C249.536 42.6615 250.656 43.4557 251.75 44.2109C252.844 44.9661 253.964 45.7604 255.109 46.5938L246.125 54.1719ZM228 17.1406C228.078 16.2292 227.909 15.487 227.492 14.9141C227.102 14.3411 226.49 14.0156 225.656 13.9375C224.797 13.8073 224.055 13.9896 223.43 14.4844C222.805 14.9531 222.453 15.6562 222.375 16.5938C222.323 17.1927 222.362 17.8047 222.492 18.4297C222.622 19.0286 222.805 19.6276 223.039 20.2266C223.299 20.7995 223.586 21.3594 223.898 21.9062C224.211 22.4271 224.51 22.8958 224.797 23.3125C225.135 22.9219 225.474 22.4792 225.812 21.9844C226.177 21.4896 226.503 20.9688 226.789 20.4219C227.102 19.875 227.362 19.3281 227.57 18.7812C227.805 18.2083 227.948 17.6615 228 17.1406ZM229.25 42.7656C228.469 41.8281 227.661 40.8646 226.828 39.875C225.995 38.8854 225.188 37.9219 224.406 36.9844C224.068 37.349 223.69 37.7917 223.273 38.3125C222.857 38.8333 222.453 39.3932 222.062 39.9922C221.698 40.5651 221.372 41.1641 221.086 41.7891C220.799 42.388 220.63 42.974 220.578 43.5469C220.526 44.3021 220.734 44.9922 221.203 45.6172C221.698 46.2422 222.323 46.5938 223.078 46.6719C223.625 46.75 224.185 46.6719 224.758 46.4375C225.357 46.1771 225.93 45.8385 226.477 45.4219C227.023 45.0052 227.531 44.5625 228 44.0938C228.495 43.599 228.911 43.1562 229.25 42.7656Z" fill="#FAFCFF"/>
<path d="M246.125 54.1719C245.214 53.4688 244.302 52.7917 243.391 52.1406C242.479 51.4896 241.568 50.8125 240.656 50.1094C239.38 51.125 237.935 52.1016 236.32 53.0391C234.732 53.9766 233.026 54.7839 231.203 55.4609C229.38 56.138 227.492 56.6458 225.539 56.9844C223.586 57.3229 221.62 57.401 219.641 57.2188C217.375 57.0625 215.253 56.6198 213.273 55.8906C211.32 55.1354 209.641 54.1719 208.234 53C206.828 51.8281 205.76 50.487 205.031 48.9766C204.328 47.4661 204.094 45.8646 204.328 44.1719C204.536 42.7396 205.005 41.3594 205.734 40.0312C206.49 38.6771 207.401 37.388 208.469 36.1641C209.536 34.9401 210.734 33.7812 212.062 32.6875C213.391 31.5677 214.745 30.526 216.125 29.5625C215.135 28.599 214.198 27.5833 213.312 26.5156C212.453 25.4219 211.711 24.3021 211.086 23.1562C210.461 21.9844 209.992 20.7995 209.68 19.6016C209.393 18.3776 209.354 17.1406 209.562 15.8906C209.823 14.224 210.513 12.6484 211.633 11.1641C212.753 9.67969 214.172 8.40365 215.891 7.33594C217.609 6.26823 219.536 5.46094 221.672 4.91406C223.833 4.34115 226.073 4.14583 228.391 4.32812C230.526 4.48438 232.505 4.99219 234.328 5.85156C236.177 6.71094 237.753 7.77865 239.055 9.05469C240.357 10.3307 241.333 11.75 241.984 13.3125C242.635 14.849 242.844 16.3854 242.609 17.9219C242.427 19.1719 242.023 20.3438 241.398 21.4375C240.773 22.5312 240.005 23.5729 239.094 24.5625C238.208 25.526 237.206 26.4635 236.086 27.375C234.992 28.2604 233.885 29.1458 232.766 30.0312C233.859 30.8646 234.901 31.6719 235.891 32.4531C236.906 33.2083 237.948 33.9635 239.016 34.7188C239.484 34.0417 239.94 33.3385 240.383 32.6094C240.826 31.8802 241.229 31.125 241.594 30.3438L253.234 33.1562C252.714 34.6146 252.023 36.0859 251.164 37.5703C250.331 39.0286 249.406 40.4479 248.391 41.8281C249.536 42.6615 250.656 43.4557 251.75 44.2109C252.844 44.9661 253.964 45.7604 255.109 46.5938L246.125 54.1719ZM228 17.1406C228.078 16.2292 227.909 15.487 227.492 14.9141C227.102 14.3411 226.49 14.0156 225.656 13.9375C224.797 13.8073 224.055 13.9896 223.43 14.4844C222.805 14.9531 222.453 15.6562 222.375 16.5938C222.323 17.1927 222.362 17.8047 222.492 18.4297C222.622 19.0286 222.805 19.6276 223.039 20.2266C223.299 20.7995 223.586 21.3594 223.898 21.9062C224.211 22.4271 224.51 22.8958 224.797 23.3125C225.135 22.9219 225.474 22.4792 225.812 21.9844C226.177 21.4896 226.503 20.9688 226.789 20.4219C227.102 19.875 227.362 19.3281 227.57 18.7812C227.805 18.2083 227.948 17.6615 228 17.1406ZM229.25 42.7656C228.469 41.8281 227.661 40.8646 226.828 39.875C225.995 38.8854 225.188 37.9219 224.406 36.9844C224.068 37.349 223.69 37.7917 223.273 38.3125C222.857 38.8333 222.453 39.3932 222.062 39.9922C221.698 40.5651 221.372 41.1641 221.086 41.7891C220.799 42.388 220.63 42.974 220.578 43.5469C220.526 44.3021 220.734 44.9922 221.203 45.6172C221.698 46.2422 222.323 46.5938 223.078 46.6719C223.625 46.75 224.185 46.6719 224.758 46.4375C225.357 46.1771 225.93 45.8385 226.477 45.4219C227.023 45.0052 227.531 44.5625 228 44.0938C228.495 43.599 228.911 43.1562 229.25 42.7656Z" fill="#F5A711"/>
<path d="M318.078 58L298.547 58.9375L298.391 40.8906H289.406L288.859 58H271.359L272.844 3.07812L291.438 3.9375L290.266 31.9844H298.938L299.016 1.82812L316.828 2.29688L318.078 58Z" fill="#FAFCFF"/>
<path d="M318.078 58L298.547 58.9375L298.391 40.8906H289.406L288.859 58H271.359L272.844 3.07812L291.438 3.9375L290.266 31.9844H298.938L299.016 1.82812L316.828 2.29688L318.078 58Z" fill="#F5A711"/>
<path d="M370.07 30.4219C370.07 32.7917 369.797 35.0833 369.25 37.2969C368.703 39.4844 367.909 41.5417 366.867 43.4688C365.852 45.3958 364.602 47.1667 363.117 48.7812C361.659 50.3698 360.005 51.737 358.156 52.8828C356.333 54.0286 354.341 54.9271 352.18 55.5781C350.018 56.2031 347.727 56.5156 345.305 56.5156C342.961 56.5156 340.721 56.2161 338.586 55.6172C336.477 55.0182 334.497 54.1849 332.648 53.1172C330.799 52.0234 329.12 50.7214 327.609 49.2109C326.125 47.6745 324.849 45.9818 323.781 44.1328C322.74 42.2578 321.919 40.2526 321.32 38.1172C320.747 35.9818 320.461 33.7552 320.461 31.4375C320.461 29.1719 320.734 26.9583 321.281 24.7969C321.828 22.6094 322.609 20.5521 323.625 18.625C324.667 16.6979 325.917 14.9271 327.375 13.3125C328.833 11.6979 330.461 10.3047 332.258 9.13281C334.081 7.96094 336.047 7.04948 338.156 6.39844C340.266 5.7474 342.492 5.42188 344.836 5.42188C348.612 5.42188 352.049 6.00781 355.148 7.17969C358.273 8.35156 360.93 10.0312 363.117 12.2188C365.331 14.3802 367.036 17.0104 368.234 20.1094C369.458 23.1823 370.07 26.6198 370.07 30.4219ZM352.727 31.4375C352.727 30.3177 352.557 29.237 352.219 28.1953C351.906 27.1276 351.438 26.1901 350.812 25.3828C350.188 24.5495 349.406 23.8854 348.469 23.3906C347.557 22.8698 346.503 22.6094 345.305 22.6094C344.081 22.6094 342.987 22.8307 342.023 23.2734C341.06 23.7161 340.227 24.3281 339.523 25.1094C338.846 25.8646 338.326 26.763 337.961 27.8047C337.596 28.8203 337.414 29.901 337.414 31.0469C337.414 32.1406 337.57 33.2344 337.883 34.3281C338.195 35.4219 338.664 36.4115 339.289 37.2969C339.914 38.1823 340.682 38.8984 341.594 39.4453C342.531 39.9922 343.612 40.2656 344.836 40.2656C346.06 40.2656 347.154 40.0312 348.117 39.5625C349.107 39.0677 349.94 38.4167 350.617 37.6094C351.294 36.776 351.815 35.8255 352.18 34.7578C352.544 33.6901 352.727 32.5833 352.727 31.4375Z" fill="#FAFCFF"/>
<path d="M370.07 30.4219C370.07 32.7917 369.797 35.0833 369.25 37.2969C368.703 39.4844 367.909 41.5417 366.867 43.4688C365.852 45.3958 364.602 47.1667 363.117 48.7812C361.659 50.3698 360.005 51.737 358.156 52.8828C356.333 54.0286 354.341 54.9271 352.18 55.5781C350.018 56.2031 347.727 56.5156 345.305 56.5156C342.961 56.5156 340.721 56.2161 338.586 55.6172C336.477 55.0182 334.497 54.1849 332.648 53.1172C330.799 52.0234 329.12 50.7214 327.609 49.2109C326.125 47.6745 324.849 45.9818 323.781 44.1328C322.74 42.2578 321.919 40.2526 321.32 38.1172C320.747 35.9818 320.461 33.7552 320.461 31.4375C320.461 29.1719 320.734 26.9583 321.281 24.7969C321.828 22.6094 322.609 20.5521 323.625 18.625C324.667 16.6979 325.917 14.9271 327.375 13.3125C328.833 11.6979 330.461 10.3047 332.258 9.13281C334.081 7.96094 336.047 7.04948 338.156 6.39844C340.266 5.7474 342.492 5.42188 344.836 5.42188C348.612 5.42188 352.049 6.00781 355.148 7.17969C358.273 8.35156 360.93 10.0312 363.117 12.2188C365.331 14.3802 367.036 17.0104 368.234 20.1094C369.458 23.1823 370.07 26.6198 370.07 30.4219ZM352.727 31.4375C352.727 30.3177 352.557 29.237 352.219 28.1953C351.906 27.1276 351.438 26.1901 350.812 25.3828C350.188 24.5495 349.406 23.8854 348.469 23.3906C347.557 22.8698 346.503 22.6094 345.305 22.6094C344.081 22.6094 342.987 22.8307 342.023 23.2734C341.06 23.7161 340.227 24.3281 339.523 25.1094C338.846 25.8646 338.326 26.763 337.961 27.8047C337.596 28.8203 337.414 29.901 337.414 31.0469C337.414 32.1406 337.57 33.2344 337.883 34.3281C338.195 35.4219 338.664 36.4115 339.289 37.2969C339.914 38.1823 340.682 38.8984 341.594 39.4453C342.531 39.9922 343.612 40.2656 344.836 40.2656C346.06 40.2656 347.154 40.0312 348.117 39.5625C349.107 39.0677 349.94 38.4167 350.617 37.6094C351.294 36.776 351.815 35.8255 352.18 34.7578C352.544 33.6901 352.727 32.5833 352.727 31.4375Z" fill="#F5A711"/>
<path d="M433.195 1.04688L429.602 58.3906L411.789 59.1719L411.945 28.9375L403.898 53.3125H397.023L390.852 31.5156L390.773 56.8281L372.727 57.375L373.508 3.39062L393.586 2.60938L401.555 28.4688L412.18 1.04688H433.195Z" fill="#FAFCFF"/>
<path d="M433.195 1.04688L429.602 58.3906L411.789 59.1719L411.945 28.9375L403.898 53.3125H397.023L390.852 31.5156L390.773 56.8281L372.727 57.375L373.508 3.39062L393.586 2.60938L401.555 28.4688L412.18 1.04688H433.195Z" fill="#F5A711"/>
<path d="M473.078 1.67188C472.922 4.11979 472.779 6.54167 472.648 8.9375C472.518 11.3333 472.349 13.7552 472.141 16.2031L455.578 17.0625L455.188 21.9844H466.828L465.969 34.0938L454.25 34.4844L453.859 40.1875H470.422C470.266 43.0521 470.096 45.9036 469.914 48.7422C469.758 51.5547 469.615 54.3802 469.484 57.2188L435.812 58L437.062 1.67188H473.078Z" fill="#FAFCFF"/>
<path d="M473.078 1.67188C472.922 4.11979 472.779 6.54167 472.648 8.9375C472.518 11.3333 472.349 13.7552 472.141 16.2031L455.578 17.0625L455.188 21.9844H466.828L465.969 34.0938L454.25 34.4844L453.859 40.1875H470.422C470.266 43.0521 470.096 45.9036 469.914 48.7422C469.758 51.5547 469.615 54.3802 469.484 57.2188L435.812 58L437.062 1.67188H473.078Z" fill="#F5A711"/>
</g>
<defs>
<filter id="filter0_b_263_128" x="-3.89062" y="-3.89062" width="486.969" height="71.6875" filterUnits="userSpaceOnUse" color-interpolation-filters="sRGB">
<feFlood flood-opacity="0" result="BackgroundImageFix"/>
<feGaussianBlur in="BackgroundImageFix" stdDeviation="2"/>
<feComposite in2="SourceAlpha" operator="in" result="effect1_backgroundBlur_263_128"/>
<feBlend mode="normal" in="SourceGraphic" in2="effect1_backgroundBlur_263_128" result="shape"/>
</filter>
</defs>
</svg>
